<svg height="512pt" viewBox="0 -11 512 512" width="512pt" xmlns="http://www.w3.org/2000/svg"><path d="m155 295v15h273v-44.339844l-35.464844-75.660156h-132.535156c-57.898438 0-105 47.101562-105 105zm243-22.660156v7.660156h-211.492188c6.96875-34.191406 37.273438-60 73.492188-60h113.464844zm0 0"/><path d="m381 355c0 8.285156-6.714844 15-15 15s-15-6.714844-15-15 6.714844-15 15-15 15 6.714844 15 15zm0 0"/><path d="m442 30h70v-30h-70c-41.355469 0-75 33.644531-75 75v45h-72c-78.796875 0-152.878906 30.683594-208.597656 86.402344s-86.402344 129.800781-86.402344 208.597656v15h30v29h-30v30h512v-30h-60v-44c0-24.8125 20.1875-45 45-45h15v-78.382812l-81.519531-171.617188h-33.480469v-45c0-24.8125 20.1875-45 45-45zm-20 429h-362v-29h362zm-10.480469-309 70.480469 148.382812v43.125c-29.34375 5.980469-52.511719 29.148438-58.492188 58.492188h-197.507812v-40h-30v40h-30v-40h-30v40h-30v-40h-30v40h-45.585938c3.613282-65.144531 30.703126-125.882812 77.203126-172.382812 50.050781-50.050782 116.597656-77.617188 187.382812-77.617188zm0 0"/></svg>