<svg height="512pt" viewBox="-41 0 512 512" width="512pt" xmlns="http://www.w3.org/2000/svg"><path d="m420 0h-410c-5.523438 0-10 4.476562-10 10v492c0 5.523438 4.476562 10 10 10h410c5.523438 0 10-4.476562 10-10v-492c0-5.523438-4.476562-10-10-10zm-250 20v60h-110v-60zm-150 0h20v70c0 5.523438 4.476562 10 10 10h130c5.523438 0 10-4.476562 10-10v-70h220v120h-390zm0 472v-20h155c5.511719 0 10-4.488281 10-10s-4.488281-10-10-10h-155v-292h390v292h-155c-5.511719 0-10 4.488281-10 10s4.488281 10 10 10h155v20zm0 0"/><path d="m215 452c-5.519531 0-10 4.488281-10 10s4.480469 10 10 10c5.511719 0 10-4.488281 10-10s-4.488281-10-10-10zm0 0"/><path d="m250 40c-22.054688 0-40 17.945312-40 40s17.945312 40 40 40 40-17.945312 40-40-17.945312-40-40-40zm0 60c-11.027344 0-20-8.972656-20-20s8.972656-20 20-20 20 8.972656 20 20-8.972656 20-20 20zm0 0"/><path d="m320.230469 80c-5.511719 0-10 4.488281-10 10s4.488281 10 10 10c5.519531 0 10-4.488281 10-10s-4.480469-10-10-10zm0 0"/><path d="m380.230469 80h-20c-5.511719 0-10 4.488281-10 10s4.488281 10 10 10h20c5.519531 0 10-4.488281 10-10s-4.480469-10-10-10zm0 0"/><path d="m380.230469 40h-60c-5.519531 0-10 4.476562-10 10s4.480469 10 10 10h60c5.523437 0 10-4.476562 10-10s-4.476563-10-10-10zm0 0"/><path d="m310.960938 343.722656c.09375-.152344.203124-.289062.289062-.445312 8.996094-16.21875 13.75-34.644532 13.75-53.277344 0-15.847656-3.710938-31.804688-10.457031-46.332031-5.984375-12.894531-14.355469-24.660157-24.640625-34.226563-20.410156-18.984375-47.011719-29.441406-74.902344-29.441406-27.871094 0-54.457031 10.441406-74.863281 29.40625-20.292969 18.859375-32.652344 44.410156-34.796875 71.941406-.226563 2.882813-.339844 5.792969-.339844 8.652344 0 60.652344 49.347656 110 110 110 41.15625 0 77.101562-22.722656 95.960938-56.277344zm-13.457032-89.714844c4.921875 11.292969 7.496094 23.582032 7.496094 35.992188s-2.574219 24.699219-7.496094 35.992188c-13.5625-6.578126-22.503906-20.4375-22.503906-35.992188s8.941406-29.414062 22.503906-35.992188zm-82.503906-54.007812c29.398438 0 55.886719 14.433594 72.390625 36.714844-16.203125 8.386718-27.769531 23.785156-31.269531 41.773437-2.570313 1.425781-5.113282 2.898438-7.636719 4.359375-11.660156 6.765625-22.675781 13.152344-33.484375 13.152344-10.355469 0-19.125-6.117188-29.277344-13.199219-11.285156-7.875-24.078125-16.800781-40.722656-16.800781-5.863281 0-11.613281.578125-17.207031 1.722656 10.011719-38.992187 45.738281-67.722656 87.207031-67.722656zm-90 90c0-.292969 0-.585938.003906-.882812 6.359375-2.070313 13.0625-3.117188 19.996094-3.117188 10.355469 0 19.125 6.117188 29.277344 13.199219 11.285156 7.875 24.078125 16.800781 40.722656 16.800781 15.230469 0 28.429688-7.132812 41.125-14.464844 3.511719 18 15.101562 33.40625 31.320312 41.78125-16.402343 22.230469-42.761718 36.683594-72.445312 36.683594-49.625 0-90-40.375-90-90zm0 0"/></svg>