<svg width="1792" height="1792" xmlns="http://www.w3.org/2000/svg">

 <g>
  <title>background</title>
  <rect fill="none" id="canvas_background" height="402" width="582" y="-1" x="-1"/>
 </g>
 <g>
  <title>Layer 1</title>
  <path fill="#ffffff" stroke="#ffffff" id="svg_1" d="m576,1308.725067l0,64q0,13 -9.5,22.5t-22.5,9.5l-64,0q-13,0 -22.5,-9.5t-9.5,-22.5l0,-64q0,-13 9.5,-22.5t22.5,-9.5l64,0q13,0 22.5,9.5t9.5,22.5zm0,-256l0,64q0,13 -9.5,22.5t-22.5,9.5l-64,0q-13,0 -22.5,-9.5t-9.5,-22.5l0,-64q0,-13 9.5,-22.5t22.5,-9.5l64,0q13,0 22.5,9.5t9.5,22.5zm256,0l0,64q0,13 -9.5,22.5t-22.5,9.5l-64,0q-13,0 -22.5,-9.5t-9.5,-22.5l0,-64q0,-13 9.5,-22.5t22.5,-9.5l64,0q13,0 22.5,9.5t9.5,22.5zm-256,-256l0,64q0,13 -9.5,22.5t-22.5,9.5l-64,0q-13,0 -22.5,-9.5t-9.5,-22.5l0,-64q0,-13 9.5,-22.5t22.5,-9.5l64,0q13,0 22.5,9.5t9.5,22.5zm768,512l0,64q0,13 -9.5,22.5t-22.5,9.5l-64,0q-13,0 -22.5,-9.5t-9.5,-22.5l0,-64q0,-13 9.5,-22.5t22.5,-9.5l64,0q13,0 22.5,9.5t9.5,22.5zm-256,-256l0,64q0,13 -9.5,22.5t-22.5,9.5l-64,0q-13,0 -22.5,-9.5t-9.5,-22.5l0,-64q0,-13 9.5,-22.5t22.5,-9.5l64,0q13,0 22.5,9.5t9.5,22.5zm-256,-256l0,64q0,13 -9.5,22.5t-22.5,9.5l-64,0q-13,0 -22.5,-9.5t-9.5,-22.5l0,-64q0,-13 9.5,-22.5t22.5,-9.5l64,0q13,0 22.5,9.5t9.5,22.5zm-256,-256l0,64q0,13 -9.5,22.5t-22.5,9.5l-64,0q-13,0 -22.5,-9.5t-9.5,-22.5l0,-64q0,-13 9.5,-22.5t22.5,-9.5l64,0q13,0 22.5,9.5t9.5,22.5zm768,512l0,64q0,13 -9.5,22.5t-22.5,9.5l-64,0q-13,0 -22.5,-9.5t-9.5,-22.5l0,-64q0,-13 9.5,-22.5t22.5,-9.5l64,0q13,0 22.5,9.5t9.5,22.5zm-256,-256l0,64q0,13 -9.5,22.5t-22.5,9.5l-64,0q-13,0 -22.5,-9.5t-9.5,-22.5l0,-64q0,-13 9.5,-22.5t22.5,-9.5l64,0q13,0 22.5,9.5t9.5,22.5zm-256,-256l0,64q0,13 -9.5,22.5t-22.5,9.5l-64,0q-13,0 -22.5,-9.5t-9.5,-22.5l0,-64q0,-13 9.5,-22.5t22.5,-9.5l64,0q13,0 22.5,9.5t9.5,22.5zm-256,-256l0,64q0,13 -9.5,22.5t-22.5,9.5l-64,0q-13,0 -22.5,-9.5t-9.5,-22.5l0,-64q0,-13 9.5,-22.5t22.5,-9.5l64,0q13,0 22.5,9.5t9.5,22.5zm768,512l0,64q0,13 -9.5,22.5t-22.5,9.5l-64,0q-13,0 -22.5,-9.5t-9.5,-22.5l0,-64q0,-13 9.5,-22.5t22.5,-9.5l64,0q13,0 22.5,9.5t9.5,22.5zm-256,-256l0,64q0,13 -9.5,22.5t-22.5,9.5l-64,0q-13,0 -22.5,-9.5t-9.5,-22.5l0,-64q0,-13 9.5,-22.5t22.5,-9.5l64,0q13,0 22.5,9.5t9.5,22.5zm-256,-256l0,64q0,13 -9.5,22.5t-22.5,9.5l-64,0q-13,0 -22.5,-9.5t-9.5,-22.5l0,-64q0,-13 9.5,-22.5t22.5,-9.5l64,0q13,0 22.5,9.5t9.5,22.5zm512,256l0,64q0,13 -9.5,22.5t-22.5,9.5l-64,0q-13,0 -22.5,-9.5t-9.5,-22.5l0,-64q0,-13 9.5,-22.5t22.5,-9.5l64,0q13,0 22.5,9.5t9.5,22.5zm-256,-256l0,64q0,13 -9.5,22.5t-22.5,9.5l-64,0q-13,0 -22.5,-9.5t-9.5,-22.5l0,-64q0,-13 9.5,-22.5t22.5,-9.5l64,0q13,0 22.5,9.5t9.5,22.5zm256,0l0,64q0,13 -9.5,22.5t-22.5,9.5l-64,0q-13,0 -22.5,-9.5t-9.5,-22.5l0,-64q0,-13 9.5,-22.5t22.5,-9.5l64,0q13,0 22.5,9.5t9.5,22.5zm-256,1376l384,0l0,-1536l-1152,0l0,1536l384,0l0,-224q0,-13 9.5,-22.5t22.5,-9.5l320,0q13,0 22.5,9.5t9.5,22.5l0,224zm512,-1600l0,1664q0,26 -19,45t-45,19l-1280,0q-26,0 -45,-19t-19,-45l0,-1664q0,-26 19,-45t45,-19l1280,0q26,0 45,19t19,45z"/>
 </g>
</svg>