<svg width="64" height="64" xmlns="http://www.w3.org/2000/svg">

 <g>
  <title>background</title>
  <rect fill="none" id="canvas_background" height="402" width="582" y="-1" x="-1"/>
 </g>
 <g>
  <title>Layer 1</title>
  <path id="svg_3" fill="#241F20" d="m295.665,451.924c-0.491,0 -0.983,-0.318 -1.254,-0.812l-4.454,-8.142l-11.363,0l-0.079,-0.013c0,0 -0.229,0.004 -0.23,0.004c-1.169,0 -2.08,-0.854 -2.152,-1.946l-0.71,-10.828c-0.074,-1.147 0.8,-2.143 1.947,-2.217l0.636,-0.039l0.145,-0.005c1.094,0 2.006,0.853 2.077,1.941l0.25,3.925l7.509,0c0.281,0 0.52,0.316 0.52,0.69s-0.238,0.689 -0.52,0.689l-7.42,0l0.293,4.41l8.797,0c0.181,0 0.355,0.029 0.533,0.088l0.071,0.024l0.073,0.013c0.415,0.072 0.798,0.362 1.026,0.777l5.179,9.467c0.375,0.694 0.207,1.524 -0.377,1.846c-0.155,0.087 -0.317,0.128 -0.497,0.128z"/>
  <path id="svg_4" fill="#241F20" d="m278.149,428.927c0.568,0 1.043,0.442 1.079,1.003l0.19,2.99l0.08,1.253l-0.003,0l0.143,2.133l0.16,2.41l0.124,1.867l1.871,0l7.861,0c0.072,0 0.142,0.012 0.217,0.037l0.143,0.047l0.146,0.026c0.092,0.016 0.224,0.096 0.319,0.27l5.175,9.461c0.145,0.267 0.061,0.478 0.01,0.5c-0.084,0 -0.261,-0.079 -0.376,-0.29l-4.17,-7.623l-0.569,-1.04l-1.186,0l-10.729,0l-0.061,-0.01l-0.16,0l-0.09,0l-0.077,0.001l-0.037,0.001c-0.568,0 -1.043,-0.444 -1.08,-1.012l-0.71,-10.826c-0.039,-0.6 0.416,-1.118 1.007,-1.156l0.647,-0.039l0.076,-0.003m0,-2c-0.068,0 -0.137,0.002 -0.206,0.007l-0.639,0.039c-1.701,0.11 -2.99,1.58 -2.881,3.28l0.71,10.829c0.107,1.632 1.466,2.881 3.076,2.881c0.038,0 0.076,-0.001 0.114,-0.002l0.09,0c0.061,0.01 0.12,0.01 0.18,0.01l10.771,0l4.17,7.623c0.461,0.84 1.301,1.33 2.131,1.33c0.34,0 0.67,-0.08 0.979,-0.25c1.07,-0.59 1.41,-2.02 0.771,-3.201l-5.18,-9.47c-0.391,-0.71 -1.041,-1.16 -1.73,-1.28c-0.27,-0.09 -0.551,-0.14 -0.85,-0.14l-7.861,0l-0.16,-2.41l6.352,0c0.84,0 1.52,-0.76 1.52,-1.689c0,-0.931 -0.68,-1.69 -1.52,-1.69l-6.57,0l-0.19,-2.99c-0.108,-1.631 -1.464,-2.877 -3.077,-2.877l0,0z"/>
  <circle id="svg_6" r="2.583" fill="#241F20" cy="422.505" cx="277.667"/>
  <path id="svg_7" fill="#241F20" d="m277.667,420.922c0.873,0 1.584,0.71 1.584,1.583s-0.711,1.583 -1.584,1.583s-1.583,-0.71 -1.583,-1.583s0.71,-1.583 1.583,-1.583m0,-2c-1.979,0 -3.583,1.604 -3.583,3.583s1.604,3.583 3.583,3.583c1.979,0 3.584,-1.604 3.584,-3.583s-1.605,-3.583 -3.584,-3.583l0,0z"/>
  <path id="svg_8" fill="#241F20" d="m270.166,435.504c0,0 -5.969,4.249 -5.406,11.968s6.625,12.156 11.875,12.906s11.062,-1.416 14.312,-7.145c0.312,-0.699 0.656,-1.199 0,-1.824c0,0 -0.844,-0.656 -1.5,0.344s-1.625,3.531 -5.188,5.344c-2.188,1.125 -5.094,2.125 -9.125,0.906s-9.031,-5.844 -8.375,-12.344c0.438,-3.438 1.594,-6.156 5.219,-8.968c0.75,-0.688 0.719,-1.156 0.375,-1.562s-0.875,-0.5 -1.375,-0.188s-0.812,0.563 -0.812,0.563z"/>
  <path id="svg_11" fill="#ffffff" d="m55.365,-0.001l-46.729,0c-0.968,0 -1.751,0.81 -1.751,1.809l0,13.261l50.23,0l0,-13.261c0,-0.999 -0.781,-1.809 -1.75,-1.809zm-1.749,11.755l-43.419,0l0,-7.458c0,-0.562 0.677,-1.019 1.513,-1.019l40.391,0c0.837,0 1.515,0.456 1.515,1.019l0,7.458z"/>
  <path id="svg_13" fill="#ffffff" d="m6.885,18.285l0,44.042c0,0.925 0.783,1.674 1.751,1.674l46.729,0c0.969,0 1.75,-0.749 1.75,-1.674l0,-44.042l-50.23,0zm46.866,40.442c0,0.779 -0.678,1.409 -1.519,1.409l-40.482,0c-0.839,0 -1.518,-0.63 -1.518,-1.409l0,-37.068l43.519,0l0,37.068z"/>
  <path id="svg_15" fill="#ffffff" d="m31.931,26.474c-7.822,0 -14.164,6.341 -14.164,14.161c0,7.823 6.341,14.162 14.164,14.162c7.819,0 14.161,-6.339 14.161,-14.162c0,-7.821 -6.342,-14.161 -14.161,-14.161zm-0.016,25.399c-6.092,0 -11.119,-4.551 -11.861,-10.44c0,0 3.313,4.559 7.377,0.145c1.541,3.152 6.374,3.854 8.827,-0.14c2.103,2.872 7.551,-0.296 7.551,-0.296c-0.612,6.031 -5.704,10.731 -11.894,10.731z"/>
  <circle id="svg_16" r="2.512" fill="#ffffff" cy="7.408017" cx="16.128"/>
  <circle id="svg_17" r="2.512" fill="#ffffff" cy="7.534" cx="24.422"/>
 </g>
</svg>