<svg width="319.5" height="317" xmlns="http://www.w3.org/2000/svg">

 <g>
  <title>background</title>
  <rect fill="none" id="canvas_background" height="402" width="582" y="-1" x="-1"/>
 </g>
 <g>
  <title>Layer 1</title>
  <path fill-opacity="0" stroke-miterlimit="10" stroke-width="5" stroke="#ffffff" fill="#000000" id="svg_241" d="m244.3,287.6l-167.3,0c-9.4,0 -17,-7.7 -17,-17l0,-226c0,-9.4 7.7,-17 17,-17l167.3,0c9.4,0 17,7.7 17,17l0,226c0.1,9.3 -7.6,17 -17,17z" class="st6"/>
  <path fill-opacity="0" stroke-miterlimit="10" stroke-width="5" stroke="#ffffff" fill="#000000" id="svg_242" d="m166.8,275.1" class="st6"/>
  <path fill-opacity="0" stroke-miterlimit="10" stroke-width="5" stroke="#ffffff" fill="#000000" id="svg_243" d="m166.8,293.1" class="st6"/>
  <line fill-opacity="0" stroke-miterlimit="10" stroke-width="5" stroke="#ffffff" fill="none" id="svg_244" y2="58" y1="58" x2="261.4" x1="60" class="st6"/>
  <line fill-opacity="0" stroke-miterlimit="10" stroke-width="5" stroke="#ffffff" fill="none" id="svg_246" y2="110.3" y1="110.3" x2="261.4" x1="60" class="st6"/>
  <line fill-opacity="0" stroke-miterlimit="10" stroke-width="5" stroke="#ffffff" fill="none" id="svg_247" y2="271.3" y1="271.3" x2="261.4" x1="60" class="st6"/>
  <circle fill-opacity="0" stroke-miterlimit="10" stroke-width="5" stroke="#ffffff" fill="#000000" id="svg_248" r="11" cy="83.1" cx="229.2" class="st6"/>
  <line fill-opacity="0" stroke-miterlimit="10" stroke-width="5" stroke="#ffffff" fill="none" id="svg_249" y2="80.2" y1="86.1" x2="230.7" x1="227.6" class="st6"/>
  <line fill-opacity="0" stroke-miterlimit="10" stroke-width="5" stroke="#ffffff" fill="none" id="svg_251" y2="90.5" y1="75.8" x2="186.9" x1="186.9" class="st6"/>
  <line fill-opacity="0" stroke-miterlimit="10" stroke-width="5" stroke="#ffffff" fill="none" id="svg_252" y2="90.5" y1="75.8" x2="164.3" x1="164.3" class="st6"/>
  <line fill-opacity="0" stroke-miterlimit="10" stroke-width="5" stroke="#ffffff" fill="none" id="svg_253" y2="90.5" y1="75.8" x2="175.6" x1="175.6" class="st6"/>
  <path fill-opacity="0" stroke-miterlimit="10" stroke-width="5" stroke="#ffffff" fill="#000000" id="svg_254" d="m127.4,97.8l-49.7,0c-3.1,0 -5.7,-2.6 -5.7,-5.7l0,-16.8c0,-3.1 2.6,-5.7 5.7,-5.7l49.7,0c3.1,0 5.7,2.6 5.7,5.7l0,16.8c0,3.1 -2.6,5.7 -5.7,5.7z" class="st6"/>
  <line fill-opacity="0" stroke-miterlimit="10" stroke-width="5" stroke="#ffffff" fill="none" id="svg_255" y2="79.5" y1="79.5" x2="133.1" x1="72" class="st6"/>
  <circle fill-opacity="0" stroke-miterlimit="10" stroke-width="5" stroke="#ffffff" fill="#000000" id="svg_256" r="58" cy="190.8" cx="160.7" class="st6"/>
  <path fill-opacity="0" stroke-miterlimit="10" stroke-width="5" stroke="#ffffff" fill="#000000" id="svg_257" d="m140,190.8c0,-11.4 9.3,-20.7 20.7,-20.7" class="st6"/>
  <path fill-opacity="0" stroke-miterlimit="10" stroke-width="5" stroke="#ffffff" fill="#000000" id="svg_258" d="m195.5,195.3c0,19.2 -15.6,30.3 -34.8,30.3s-34.8,-15.6 -34.8,-34.8s15.6,-34.8 34.8,-34.8c19.5,0 34.8,14.3 34.8,30.3" class="st6"/>
  <polyline fill-opacity="0" stroke-miterlimit="10" stroke-width="5" stroke="#ffffff" fill="none" id="svg_259" points="195.5,183.8 182.6,183.8 182.6,197.8 194.7,197.8   " class="st6"/>
 </g>
</svg>