<?xml version="1.0"?>
<svg xmlns="http://www.w3.org/2000/svg" id="Layer_5" enable-background="new 0 0 64 64" height="512px" viewBox="0 0 64 64" width="512px" class=""><g><path d="m20.454 43.629c-.57.372-1.139.773-1.69 1.192l1.211 1.592c.513-.39 1.042-.763 1.572-1.109z" data-original="#000000" class="active-path" data-old_color="#000000" fill="#FFFFFF"/><path d="m11.205 53.51 1.743.98c1.475-2.621 3.367-4.953 5.625-6.931l-1.318-1.504c-2.429 2.128-4.464 4.636-6.05 7.455z" data-original="#000000" class="active-path" data-old_color="#000000" fill="#FFFFFF"/><path d="m35.44 40c-6.689 0-12.476 4.305-14.398 10.712l-.386 1.288h24.879l2.597-3.896-3.473-8.104zm-4.256 10c.414-1.161 1.514-2 2.816-2h2c1.302 0 2.402.839 2.816 2zm13.281 0h-3.566c-.465-2.279-2.484-4-4.899-4h-2c-2.414 0-4.434 1.721-4.899 4h-5.685c2.009-4.837 6.685-8 12.024-8h7.9l2.527 5.896z" data-original="#000000" class="active-path" data-old_color="#000000" fill="#FFFFFF"/><path d="m57.586 27-5.086 5.086-1.5-1.5-4.414 4.414h-10.499c-4.624 0-9.054.975-13.087 2.737v-3.737h-6v7.153c-5.513 3.982-9.773 9.693-11.953 16.544l-.415 1.303h2.368v4h42v-4.667l6.147-8.196-4.462-10.409 4.729-4.728-1.5-1.5 4.5-4.5h4.586v-2zm-38.586 9h2v2.683c-.68.354-1.348.729-2 1.13zm-10 25v-2h38v2zm38.5-4h-40.1c4.417-12.019 15.777-20 28.688-20h11.252l5.513 12.862zm2.337-19.251-.952-2.22 2.115-2.115 1.586 1.586z" data-original="#000000" class="active-path" data-old_color="#000000" fill="#FFFFFF"/><path d="m8.025 18.506c-.006.075-.008.15-.011.226-.004.09-.014.178-.014.268h.014c0 .421.031.846.122 1.272.484 2.262 2.237 4.055 4.465 4.567.972.222 1.955.212 2.891-.028.989 1.897 1.508 4.012 1.508 6.189l2-.035c0-2.775-.755-5.5-2.183-7.88l-.448-.747-.801.342c-.787.335-1.658.409-2.518.21-1.453-.334-2.641-1.554-2.958-3.036-.063-.293-.092-.586-.09-.876 0-.03.008-.059.009-.089.008-.26.035-.518.093-.769.005-.022.014-.042.02-.063.138-.545.389-1.063.759-1.529l.101-.127c.735-.85 1.807-1.401 3.016-1.401v-2c-1.754 0-3.329.761-4.427 1.964-.201.022-.393.036-.573.036-1.798 0-3.486-.797-4.632-2.186-1.145-1.389-1.601-3.221-1.25-5.027.452-2.33 2.322-4.205 4.653-4.665 2.094-.414 4.189.28 5.606 1.805-.24.647-.377 1.343-.377 2.073h2c0-.529.108-1.031.296-1.494l.152-.3c.272-.536.648-.98 1.087-1.332.048-.038.091-.081.141-.116.098-.071.203-.13.307-.192.103-.061.208-.12.317-.172.095-.045.192-.087.291-.124.136-.052.276-.093.418-.13.086-.022.169-.049.257-.065.229-.043.463-.069.704-.071.202-.002.407.009.613.038 1.477.208 2.738 1.278 3.214 2.726.329 1.001.258 2-.21 2.966l-.9 1.857 2.015-.445c1.339-.295 2.603-.146 3.862.46 1.834.882 3.13 2.638 3.383 4.583.229 1.758-.281 3.452-1.437 4.768-1.206 1.374-3.013 2.102-4.811 2.021-2.187-.112-4.176-1.415-5.122-3.406l-1.807.858c1.002 2.109 2.882 3.645 5.073 4.264-1.202 2.232-1.843 4.729-1.843 7.271v.035l2-.035c0-2.413.656-4.782 1.897-6.851l.069-.114c.006 0 .013-.001.019-.001.005 0 .01.001.015.001v-.002c2.278-.012 4.493-.991 6.013-2.721 1.518-1.729 2.217-4.042 1.917-6.346-.339-2.607-2.063-4.956-4.5-6.128-1.14-.548-2.322-.83-3.52-.802.167-.946.097-1.913-.214-2.859-.712-2.166-2.61-3.768-4.835-4.082-.288-.04-.576-.054-.861-.053v-.007c-1.833 0-3.475.829-4.576 2.129-1.868-1.731-4.459-2.479-7.04-1.969-3.12.616-5.624 3.126-6.229 6.246-.465 2.395.144 4.83 1.67 6.68 1.39 1.686 3.38 2.717 5.534 2.888-.175.486-.29.999-.334 1.532z" data-original="#000000" class="active-path" data-old_color="#000000" fill="#FFFFFF"/><path d="m25 18v2c2.206 0 4-1.794 4-4s-1.794-4-4-4v2c1.103 0 2 .897 2 2s-.897 2-2 2z" data-original="#000000" class="active-path" data-old_color="#000000" fill="#FFFFFF"/><path d="m9 7v-2c-2.206 0-4 1.794-4 4s1.794 4 4 4v-2c-1.103 0-2-.897-2-2s.897-2 2-2z" data-original="#000000" class="active-path" data-old_color="#000000" fill="#FFFFFF"/></g> </svg>
