<?xml version="1.0"?>
<svg xmlns="http://www.w3.org/2000/svg" xmlns:xlink="http://www.w3.org/1999/xlink" version="1.1" id="Capa_1" x="0px" y="0px" viewBox="0 0 480 480" style="enable-background:new 0 0 480 480;" xml:space="preserve" width="512px" height="512px" class=""><g><g>
	<g>
		<path d="M472,216h-64v-16h56c4.418,0,8-3.582,8-8v-88c0-4.418-3.582-8-8-8H336c-4.418,0-8,3.582-8,8v88c0,4.418,3.582,8,8,8h56v16    h-80.392c-1.656-21.607-13.36-41.184-31.608-52.872V72c0-39.765-32.235-72-72-72c-39.764,0-72,32.235-72,72v91.128    c-18.248,11.688-29.952,31.265-31.608,52.872H88v-16c0-4.418-3.582-8-8-8h-1.144v-4c-0.021-13.464-9.621-25.007-22.856-27.48V160    c0-4.418-3.582-8-8-8s-8,3.582-8,8v0.52c-13.235,2.473-22.835,14.016-22.856,27.48v4H16c-4.418,0-8,3.582-8,8v16    c-4.418,0-8,3.582-8,8v32c0,4.418,3.582,8,8,8h8v208c0,4.418,3.582,8,8,8h432c4.418,0,8-3.582,8-8V264h8c4.418,0,8-3.582,8-8v-32    C480,219.582,476.418,216,472,216z M344,184v-72h112v72H344z M269.6,175.52c14.653,8.526,24.288,23.602,25.872,40.48H216v-23.536    c6.715-1.698,12.692-5.54,17.024-10.944l10.688-13.36c8.052,0.353,15.947,2.349,23.2,5.864    C267.701,174.694,268.615,175.202,269.6,175.52z M152,72c0-30.928,25.072-56,56-56c30.928,0,56,25.072,56,56v83.712    c-7.759-2.475-15.856-3.728-24-3.712c-0.16,0-0.288,0.08-0.44,0.088c-0.543,0.05-1.08,0.157-1.6,0.32    c-0.497,0.099-0.982,0.25-1.448,0.448c-0.406,0.234-0.791,0.501-1.152,0.8c-0.476,0.316-0.916,0.684-1.312,1.096    c-0.096,0.104-0.232,0.16-0.328,0.272l-13.184,16.496c-5.956,6.923-16.396,7.708-23.32,1.752    c-0.627-0.539-1.213-1.125-1.752-1.752L182.248,155c-0.096-0.12-0.24-0.168-0.336-0.28c-0.381-0.394-0.802-0.748-1.256-1.056    c-0.385-0.301-0.794-0.568-1.224-0.8c-0.438-0.18-0.89-0.321-1.352-0.424c-0.541-0.172-1.099-0.284-1.664-0.336    c-0.144,0-0.272-0.08-0.416-0.08c-8.144-0.016-16.241,1.237-24,3.712V72z M146.4,175.52L146.4,175.52    c1-0.313,1.927-0.821,2.728-1.496c7.253-3.516,15.148-5.511,23.2-5.864l10.688,13.36c4.322,5.396,10.284,9.238,16.984,10.944V216    h-79.472C122.112,199.122,131.747,184.046,146.4,175.52z M33.144,188c0-6.627,5.373-12,12-12h5.712c6.627,0,12,5.373,12,12v4    H33.144V188z M24,208h48v8H24V208z M448,464H32V264h416V464z M464,248H16v-16h448V248z" data-original="#000000" class="active-path" data-old_color="#000000" fill="#FFFFFF"/>
	</g>
</g><g>
	<g>
		<path d="M248,64c-14.144,0-36.912-3.712-40.84-11.576c-1.47-2.854-4.484-4.572-7.688-4.384c-3.222,0.21-6.002,2.337-7.048,5.392    C188.81,64.008,179.157,71.346,168,72c-4.418,0-8,3.582-8,8v25.352c0.031,26.497,21.503,47.969,48,48v0.016    c26.495-0.035,47.965-21.505,48-48V72C256,67.582,252.418,64,248,64z M240,105.32c0,17.673-14.327,32-32,32s-32-14.327-32-32    V87.256c10.698-2.22,20.053-8.649,25.96-17.84c11.676,6.421,24.719,9.954,38.04,10.304V105.32z" data-original="#000000" class="active-path" data-old_color="#000000" fill="#FFFFFF"/>
	</g>
</g></g> </svg>
