<?xml version="1.0" encoding="utf-8"?>
<!-- Generator: Adobe Illustrator 22.1.0, SVG Export Plug-In . SVG Version: 6.00 Build 0)  -->
<svg version="1.1" id="Capa_1" xmlns="http://www.w3.org/2000/svg" xmlns:xlink="http://www.w3.org/1999/xlink" x="0px" y="0px"
	 viewBox="0 0 198.5 156.5" style="enable-background:new 0 0 198.5 156.5;" xml:space="preserve">
<style type="text/css">
	.st0{fill:#1F5B86;}
	.st1{fill:#368AB2;}
	.st2{fill:#050505;}
	.st3{fill:#02ACD9;}
	.st4{fill:#0CA3CF;}
	.st5{fill:#BED5E6;}
	.st6{fill:#A8BBD2;}
	.st7{fill:#FEFEFE;}
	.st8{fill:#FCFCFC;}
	.st9{fill:#0C0C0C;}
</style>
<g>
	<path class="st0" d="M44.3,71.6c-1.3-5-1.2-10.1-0.4-15.2c1.1-6.9,3.2-13.5,7-19.5C57,27.1,66,21.8,77.1,19.7
		c6.3-1.2,12.7-1.2,19.1-0.5c0.7,0.1,1.4,0.3,2.1,0.3c1,0,1.5,0.4,1.4,1.6c-0.4,7.5-0.8,15-1.1,22.5c-0.1,1.2-0.1,2.4-0.2,3.6
		c-0.4,0.2-0.5-0.1-0.7-0.3c-3.1-2.9-6.1-5.8-9.2-8.6c-0.2-0.2-0.4-0.3-0.7-0.5l0,0c0.3,1.4,1.3,2.5,2.1,3.8c2.2,3.6,4.4,7.2,6.8,11
		c-12.8,0.5-25.3,0.9-37.9,1.4c-0.6,0.4-1.1,0-1.7,0.1c0.6,0,1.2,0.1,1.7,0.2c5.2,0.4,10.3,0.9,15.5,1.3c3.6,0.3,7.2,0.7,10.8,1
		c0.3,0.9-0.5,1-1,1.1c-3.2,1.2-6.5,2.4-9.8,3.6C65,64.6,55.6,68,46.3,71.4C45.6,71.6,45,72,44.3,71.6z"/>
	<path class="st1" d="M141.8,53.8c-12.6-0.5-25.2-0.9-38-1.4c0.8-1.3,1.4-2.5,2.2-3.5c2.9-1,5.9-2.1,8.8-3.1
		c9.1-3.3,18.2-6.7,27.4-10c3.5-1.3,6.9-2.6,10.5-3.7c1.3,2.5,2.1,5.2,2.4,8.1c0.3,2.2,0.6,4.5,0.6,6.7c-0.2,6-0.8,12-3.1,17.7
		c-3.5,1.3-7.1,2.6-10.6,3.8c-9.4,3.4-18.7,6.8-28.1,10.2c-3.6,1.3-7.3,2.6-10.9,4c-0.6,0.2-1.2,0.5-1.8,0.2
		c0.2-5.7,0.4-11.5,0.6-17.2c0-1.4,0.1-2.9,0.1-4.3c0-0.4-0.1-0.9,0.3-1.3c4.2,3.8,8.4,7.6,12.6,11.4c0.1,0,0.2,0.1,0.3,0.2
		c0,0,0,0.1,0,0.1s0.1-0.1,0.1-0.1c0-0.1,0-0.2,0-0.2c-3.5-4.6-7.1-9.1-10.7-13.9c1.5-0.4,3-0.4,4.4-0.5c8.3-0.7,16.6-1.4,24.9-2.1
		c2.7-0.2,5.4-0.5,8.1-0.7c0.5-0.1,1-0.1,1.5-0.2C142.8,54,142.3,54.1,141.8,53.8z"/>
	<path class="st0" d="M152.7,32.1c-0.9,0.9-2.1,1-3.2,1.5c-10,3.7-20,7.3-30,10.9c-3.9,1.4-7.7,2.8-11.5,4.3
		c-0.6,0.2-1.2,0.3-1.9,0.3c1.7-2.8,3.5-5.7,5.2-8.5c0.5-0.9,1-1.8,1.6-2.7c0-0.1,0-0.2-0.1-0.1c-3,2.8-6.1,5.7-9.1,8.5
		c-0.4,0.4-0.8,0.7-1.4,1.3c-0.2-3.4-0.3-6.6-0.5-9.8c-0.3-5.7-0.5-11.3-0.9-17c0-0.8,0.2-0.9,0.8-0.7c4.1,0.8,8.1,1.4,12,2.9
		c0.6,0.2,1.4,0.3,2.1,0.4c0.1-0.1,0.1-0.1,0.2-0.1c0,0,0,0.1,0,0.1s0-0.1,0-0.1c-0.1,0-0.1-0.1-0.1-0.1c-3.1-1.6-6.2-3.1-9.2-4.8
		c-2.9-1.6-4.9-3.9-6-7.1c-1.1-3.3-2.3-6.6-3.3-10c-0.1-0.3-0.1-0.6-0.2-1c2.5,0.3,4.8,0.8,7.1,1.3c7.6,1.7,15.1,4,22.2,7.3
		c4.2,2,8.3,4.2,12.1,7c2.2,1.6,4.4,3.3,6.3,5.3C148.1,24.3,151,27.8,152.7,32.1z"/>
	<path class="st1" d="M44.3,71.6c2.4-0.4,4.7-1.5,7-2.3c5-1.7,9.9-3.6,14.8-5.4c6.1-2.2,12.3-4.5,18.4-6.7c0.4-0.1,0.7-0.3,0.7-0.7
		c3.6,0.3,7.3,0.5,11.2,0.8c-1.5,1.9-2.8,3.6-4.2,5.4c-2.1,2.8-4.3,5.6-6.4,8.3c0,0.1-0.1,0.2-0.2,0.3c0,0.1-0.1,0.1-0.2,0.1
		c0,0,0.1,0.1,0.1,0.1s0-0.1,0-0.1c0.1-0.1,0.1-0.1,0.2-0.2c0.1-0.1,0.2-0.2,0.3,0c3.8-3.4,7.5-6.8,11.3-10.2
		c0.4-0.4,0.8-0.7,1.6-1.1c0,1.7,0,3.4,0,5c0.2,6.3,0.4,12.7,0.6,19c-4.7,1.8-9.4,3.5-14.2,5.2c-6.8,2.5-13.6,4.9-20.4,7.4
		c-0.2,0.1-0.3,0.1-0.5,0.1C56.4,92.1,49.8,86,46.1,77.2C45.3,75.4,44.6,73.5,44.3,71.6z"/>
	<path class="st2" d="M99.2,117.4c32.6,0,65.3,0,97.9,0c1.2,0,1.4,0.3,1.4,1.4c0,12.2,0,24.3,0,36.5c0,1.1-0.3,1.3-1.3,1.3
		c-65.3,0-130.5,0-195.8,0c-1.1,0-1.4-0.2-1.4-1.4c0.1-12.2,0-24.3,0-36.5c0-1.1,0.3-1.3,1.3-1.3C34,117.4,66.6,117.4,99.2,117.4z"
		/>
	<path class="st3" d="M99.6,88.8c0.3,3.4,0.1,6.8,0.1,10.2c0,2.4,0,4.9,0,7.3c0,1.6,0,1.6-1.6,1.4c-5.9-0.8-11.8-2.1-17.5-3.9
		c-3.5-1.1-6.9-2.3-10.1-3.9c-0.3-0.9,0.4-1,0.9-1.2c2.1-0.9,4.3-1.6,6.5-2.4c6.7-2.4,13.4-4.9,20.1-7.3
		C98.6,88.7,99.1,88.4,99.6,88.8z"/>
	<path class="st3" d="M150.4,69.1c-4.8,8.6-12.3,13.6-21.5,16.3c-7.9,2.3-16,2.8-24.2,2c-1.1-0.1-2.1,0-3.2-0.4
		c-0.2-0.9,0.5-0.9,1-1c2.8-1.1,5.7-2.1,8.5-3.2c10.3-3.8,20.7-7.5,31-11.3c2.3-0.8,4.5-1.7,6.8-2.4C149.3,69,149.9,68.7,150.4,69.1
		z"/>
	<path class="st4" d="M150.4,69.1c-2,0.2-3.8,1.2-5.7,1.8c-4.9,1.7-9.8,3.6-14.7,5.4c-7.6,2.8-15.2,5.5-22.8,8.3
		c-1.6,0.6-3.2,1.2-4.8,1.8c-0.4,0.1-0.8,0.2-0.9,0.7c-0.5,0.1-0.6-0.3-0.6-0.7c0-1.2,0.1-2.4,0.1-3.6c6.2-2,12.3-4.4,18.4-6.6
		c4.7-1.7,9.4-3.4,14.2-5.1c5.8-2.1,11.5-4.2,17.3-6.3c0.5-0.2,1-0.2,1.5-0.2C151.9,66.1,151.3,67.7,150.4,69.1z"/>
	<path class="st4" d="M99.6,88.8c-2,0.7-4,1.3-6,2c-4.9,1.8-9.9,3.6-14.8,5.4c-2.5,0.9-4.9,1.8-7.4,2.7c-0.4,0.2-0.8,0.3-0.9,0.9
		c-2.1-0.8-4.1-1.9-6-3.1c1-1.1,2.5-1.2,3.8-1.7c10.1-3.7,20.2-7.4,30.4-11.1c0.3-0.1,0.6-0.2,0.9,0C99.7,85.6,99.7,87.2,99.6,88.8z
		"/>
	<path class="st5" d="M141.8,53.8c0.6,0,1.1,0,1.7,0c-0.6,0.3-1.1,0.5-1.8,0.3C141.8,54,141.8,53.9,141.8,53.8z"/>
	<path class="st6" d="M58.8,54.1c-0.7,0.2-1.3-0.2-2-0.3c0.7,0,1.3,0,2,0C58.8,53.9,58.8,54,58.8,54.1z"/>
	<path class="st5" d="M115,71.3c0.1,0.1,0.2,0.3,0.3,0.4c0,0.1-0.1,0.1-0.2,0.1c-0.2-0.2-0.3-0.3-0.5-0.5
		C114.8,71.3,114.9,71.3,115,71.3z"/>
	<path class="st5" d="M115.3,71.7c0.1,0.1,0.1,0.2,0,0.3c0,0-0.1-0.1-0.2-0.1C115.2,71.7,115.3,71.7,115.3,71.7z"/>
	<path class="st6" d="M116.2,23c0.3,0,0.5,0.1,0.7,0.3c-0.3,0.3-0.5,0.1-0.7-0.1C116.1,23.2,116.1,23.2,116.2,23
		C116.1,23,116.1,23,116.2,23z"/>
	<path class="st6" d="M117.3,23.5c0.1,0,0.1,0.1,0.2,0.1c0,0-0.1,0.1-0.1,0.1c-0.1,0-0.1,0-0.2-0.1
		C117.2,23.6,117.2,23.6,117.3,23.5z"/>
	<path class="st7" d="M116.2,23c0,0.1,0,0.2,0,0.3c-0.1,0-0.2-0.1-0.4-0.1c0.1-0.1,0.1-0.2,0.2-0.2C116,23,116.1,23,116.2,23z"/>
	<path class="st6" d="M85.7,71.5c-0.1,0.2-0.2,0.3-0.4,0.2c-0.1-0.1-0.1-0.2,0-0.3C85.5,71.4,85.6,71.4,85.7,71.5z"/>
	<path class="st6" d="M85,72.2c0-0.1,0-0.1,0.1-0.2C85.2,72.2,85,72.2,85,72.2L85,72.2z"/>
	<path class="st6" d="M85,72.2c0,0-0.1,0.1-0.1,0.1C84.9,72.3,84.9,72.3,85,72.2C84.9,72.2,84.9,72.2,85,72.2
		C85,72.2,85,72.2,85,72.2z"/>
	<path class="st8" d="M99.1,153.6c-31.6,0-63.3,0-94.9,0c-1,0-1.4-0.2-1.4-1.3c0.1-10.3,0-20.6,0-30.8c0-1,0.2-1.2,1.2-1.2
		c63.4,0,126.9,0,190.3,0c1,0,1.3,0.2,1.3,1.2c0,10.3,0,20.6,0,31c0,1-0.2,1.2-1.2,1.2C162.7,153.6,130.9,153.6,99.1,153.6z"/>
	<path class="st9" d="M72.4,141.2c0-4,0.1-7.9,0-11.7c0-2.1-0.4-2.4-2.4-2.9c-0.4-0.1-0.6-0.2-0.6-0.6c0-0.4,0.3-0.6,0.6-0.5
		c2.2,0.2,4.3,0.2,6.5,0c0.4,0,0.7,0.1,0.8,0.6c0,0.4-0.3,0.5-0.6,0.6c-1.9,0.5-2.3,1-2.5,2.9c-0.1,1-0.1,1.9-0.1,2.9
		c0,4.6,0,9.1,0,13.7c0,0.5,0.4,1.2-0.5,1.4c-0.7,0.2-1.1-0.2-1.5-0.7c-4.2-4.9-8.4-9.7-12.6-14.6c-0.2-0.2-0.4-0.4-0.6-0.6
		c-0.2-0.2-0.3-0.6-0.6-0.5c-0.4,0.1-0.2,0.5-0.2,0.8c0,3.8,0,7.6,0,11.4c0,1.9,0.4,2.3,2.3,2.7c0.4,0.1,1.1,0.1,1,0.8
		c-0.1,0.7-0.7,0.5-1.2,0.4c-2-0.2-4-0.2-6,0c-0.5,0-1.1,0.2-1.1-0.5c-0.1-0.6,0.6-0.6,1-0.6c2,0,2.4-1.2,2.4-2.9
		c0-4.6,0-9.1,0-13.7c0-1.8-0.5-2.4-2.3-2.8c-0.4-0.1-1.1,0-1.1-0.7c0.1-0.8,0.7-0.6,1.2-0.6c4.2-0.1,4.2-0.1,6.9,3.1
		c3.4,3.9,6.8,7.9,10.2,11.8C71.6,140.6,71.8,141,72.4,141.2z"/>
	<path class="st9" d="M26.9,141.8c0.1,1.4,0.2,2.9,0.2,4.4c0,0.4,0.2,0.9-0.3,1c-0.5,0.2-0.7-0.3-0.9-0.6c-0.4-0.8-1.1-1-1.9-0.5
		c-3.3,1.8-6.9,1.6-10.4,0.7c-3.5-0.9-5.7-3.3-6.5-6.8c-0.7-3-0.6-5.9,0.6-8.8c2.5-6.1,10.1-7.4,14.7-5.6c0.6,0.2,1.1,0.5,1.6,0.7
		c0.5,0.2,1.1,0.5,1.4-0.3c0.2-0.4,0.5-0.4,0.8-0.3c0.3,0.1,0.2,0.5,0.1,0.7c-0.3,1.6-0.1,3.2,0.2,4.8c0.1,0.4,0.1,0.7-0.3,0.9
		c-0.5,0.1-0.8-0.1-0.9-0.5c0-0.1-0.1-0.2-0.1-0.3c-1.3-3.4-3.7-5.1-7.2-5c-3.3,0.1-5.6,1.9-6.6,5.4c-0.9,3.5-0.9,7,0.7,10.3
		c1.5,3.1,4,4.3,7.8,3.9c2.9-0.3,4.6-2,5.5-5.2c0.1-0.5-0.1-1.6,0.9-1.4c1,0.2,0.3,1.1,0.4,1.6C27,141.1,26.9,141.4,26.9,141.8z"/>
	<path class="st9" d="M131.6,139.5c-4.6,0.1-3.3-0.7-5.1,3.5c-0.1,0.3-0.3,0.7-0.4,1c-0.4,0.9,0,1.5,0.9,1.9
		c0.2,0.1,0.4,0.1,0.6,0.1c0.5,0.2,1.5-0.2,1.3,0.8c-0.2,0.7-0.9,0.4-1.4,0.4c-1.7-0.1-3.3-0.2-5,0c-0.3,0.1-0.6,0-1,0
		c-0.3,0-0.4-0.2-0.5-0.5c0-0.3,0.1-0.6,0.4-0.6c2.4-0.2,3-2,3.7-3.8c2.3-5.6,4.5-11.1,6.8-16.7c0.2-0.4,0.2-0.9,0.9-1
		c0.7,0,0.8,0.5,1,1c2.3,5.7,4.6,11.4,7,17.1c0.6,1.5,1.3,3.1,3.2,3.3c0.4,0.1,0.5,0.4,0.5,0.7c-0.1,0.5-0.5,0.4-0.8,0.4
		c-1.9-0.1-3.8-0.3-5.7-0.1c-0.8,0.1-1.7,0.1-2.5,0.1c-0.4,0-0.8,0-0.8-0.5c0-0.5,0.3-0.6,0.7-0.6c1.8-0.1,2.3-0.9,1.5-2.9
		C135.1,138.8,136.2,139.6,131.6,139.5z"/>
	<path class="st9" d="M38.9,139.5c-4.6,0.1-3.3-0.6-5,3.4c-0.1,0.2-0.2,0.4-0.3,0.7c-0.5,1.5-0.3,2,1.3,2.4c0.2,0.1,0.5,0.1,0.7,0.1
		c0.4,0,0.7,0.2,0.7,0.7c0,0.5-0.5,0.5-0.8,0.5c-0.4,0-0.8,0-1.2-0.1c-1.6-0.2-3.2-0.1-4.8,0.1c-0.4,0.1-1.1,0.2-1.1-0.5
		c-0.1-0.7,0.5-0.6,0.9-0.7c1.5-0.3,2.2-1.3,2.7-2.6c1.8-4.4,3.6-8.8,5.4-13.2c0.6-1.6,1.3-3.2,1.9-4.8c0.2-0.4,0.3-0.9,0.9-0.9
		c0.6,0,0.8,0.5,0.9,0.9c2.4,5.8,4.7,11.7,7.1,17.5c0.6,1.4,1.3,2.8,3.1,3c0.4,0,0.6,0.3,0.6,0.7c0,0.5-0.4,0.5-0.8,0.5
		c-2.7-0.3-5.5-0.2-8.2,0c-0.4,0-0.9,0.1-0.9-0.5c0-0.5,0.4-0.5,0.7-0.6c2-0.5,2.1-0.9,1.5-2.9c-0.1-0.5-0.3-0.9-0.5-1.3
		c-0.9-2.4-0.9-2.4-3.5-2.4C39.8,139.5,39.3,139.5,38.9,139.5z"/>
	<path class="st2" d="M94.6,147.1c-0.8,0-1.9,0.1-3,0.2c-0.4,0-0.9,0-1-0.5c-0.1-0.6,0.4-0.6,0.8-0.7c1.9-0.5,2.2-0.9,1.5-2.8
		c-1.8-4.6-0.6-3.8-5.2-3.8c-3.8,0-3.8,0-5.2,3.5c-0.1,0.2-0.2,0.4-0.3,0.7c-0.5,1.4-0.2,1.9,1.2,2.3c0.5,0.2,1.6-0.2,1.5,0.8
		c-0.1,0.9-1.1,0.4-1.7,0.4c-1.6-0.1-3.1-0.2-4.7,0.1c-0.3,0.1-0.6,0-1,0c-0.3,0-0.5-0.2-0.5-0.5c0-0.3,0.2-0.5,0.5-0.6
		c2.1-0.2,2.8-1.8,3.5-3.4c2.3-5.7,4.6-11.3,6.9-16.9c0.2-0.4,0.2-1.1,0.9-1.1c0.8,0,0.9,0.6,1.1,1.1c2.4,5.8,4.8,11.7,7.1,17.5
		c0.6,1.4,1.2,2.6,2.9,2.9c0.4,0.1,0.7,0.3,0.7,0.7c-0.1,0.5-0.5,0.5-0.8,0.5C98.1,147.2,96.5,146.9,94.6,147.1z"/>
	<path class="st2" d="M177.9,139.5c-4.4,0.1-3.3-0.7-4.9,3.4c0,0.1-0.1,0.2-0.1,0.3c-0.8,2-0.5,2.5,1.6,2.9c0.1,0,0.2,0,0.4,0
		c0.4,0,0.6,0.3,0.5,0.6c0,0.3-0.3,0.5-0.6,0.5c-0.2,0-0.3,0-0.5,0c-1.9-0.2-3.8-0.3-5.7,0c-0.4,0.1-1.1,0.2-1.1-0.5
		c-0.1-0.6,0.6-0.6,1-0.6c1.6-0.3,2.3-1.5,2.8-2.8c2.3-5.7,4.6-11.4,6.9-17c0.1-0.2,0.1-0.4,0.2-0.5c0.2-0.4,0.2-1,0.9-1
		c0.7,0,0.8,0.5,1,1c1.2,3,2.4,6,3.6,9c1.2,2.9,2.4,5.9,3.6,8.8c0.5,1.3,1.3,2.4,2.8,2.6c0.4,0.1,0.7,0.3,0.6,0.7
		c-0.1,0.5-0.5,0.5-0.8,0.4c-2.7-0.3-5.4-0.2-8.1,0c-0.4,0-0.9,0.1-0.9-0.5c-0.1-0.6,0.4-0.6,0.8-0.7c1.9-0.5,2.2-0.9,1.5-2.7
		C181.5,138.7,182.6,139.6,177.9,139.5z"/>
	<path class="st2" d="M157.3,142.4c0.1-0.1,0.2-0.1,0.3-0.2c1.7-4.4,3.6-8.6,4.7-13.1c0.4-1.5-0.2-2.7-1.8-2.5c-0.4,0-0.7,0-0.7-0.6
		c0-0.5,0.3-0.6,0.7-0.6c2.3,0.2,4.5,0.2,6.8,0c0.3,0,0.7,0.1,0.7,0.5c0,0.4-0.2,0.6-0.6,0.6c-2,0.3-2.9,1.7-3.6,3.4
		c-2.2,5.5-4.4,11-6.6,16.5c-0.2,0.5-0.3,1.1-1.1,1.1c-0.7,0-0.8-0.6-1-1.1c-2.4-5.5-4.9-11-6.9-16.7c-0.6-1.8-1.6-3-3.6-3.2
		c-0.4,0-0.9-0.1-0.8-0.7c0-0.7,0.6-0.6,1-0.5c2.9,0.2,5.7,0.2,8.6,0c0.4,0,1-0.1,1,0.5c0,0.6-0.5,0.6-1,0.6c-1.7,0.1-2.2,0.6-1.8,2
		c1.3,4.7,3.3,9.2,5.2,13.7C157.2,142.3,157.3,142.3,157.3,142.4z"/>
	<path class="st9" d="M111.1,147.1c-2.8,0-5.7-0.1-8.5,0.2c-0.4,0-0.9,0.1-1-0.4c-0.1-0.6,0.4-0.7,0.8-0.7c2.5-0.5,2.7-0.6,2.7-2.9
		c0-4.6,0-9.2-0.1-13.8c0-1.9-0.6-2.4-2.4-2.8c-0.4-0.1-1,0.1-0.9-0.6c0-0.8,0.7-0.6,1.1-0.6c2.8,0.2,5.6,0.2,8.4,0
		c0.4,0,1-0.2,1.1,0.4c0.1,0.7-0.5,0.7-0.9,0.8c-2,0.4-2.4,0.7-2.4,2.7c-0.2,4.5-0.2,8.9,0,13.4c0.1,1.8,0.8,2.5,2.5,2.8
		c0.8,0.2,1.7,0.2,2.5,0.1c2.2-0.1,3.7-1.2,4.3-3.3c0.1-0.4,0.2-0.8,0.4-1.1c0.2-0.4,0.5-0.5,0.9-0.4c0.4,0.1,0.4,0.4,0.4,0.7
		c-0.2,1.6-0.4,3.2-0.4,4.8c0,0.8-0.6,0.7-1.1,0.7C116,147.1,113.6,147.1,111.1,147.1z"/>
	<path class="st8" d="M131.6,138.2c-0.8,0-1.7,0-2.5,0c-0.6,0-0.8-0.2-0.5-0.8c0.9-2.3,1.8-4.6,2.7-6.9c0.1-0.2,0.1-0.5,0.4-0.5
		c0.3,0,0.3,0.3,0.3,0.4c0.9,2.3,1.8,4.6,2.7,6.9c0.3,0.7-0.1,0.8-0.6,0.8C133.3,138.2,132.5,138.2,131.6,138.2
		C131.6,138.2,131.6,138.2,131.6,138.2z"/>
	<path class="st8" d="M38.9,138.2c-0.8,0-1.6,0-2.4,0c-0.6,0-0.9-0.2-0.6-0.9c0.9-2.2,1.8-4.5,2.7-6.7c0.1-0.2,0.1-0.5,0.4-0.5
		c0.4,0,0.4,0.4,0.5,0.6c0.8,2.2,1.6,4.4,2.5,6.6c0.3,0.9,0,1-0.7,1C40.5,138.2,39.7,138.2,38.9,138.2z"/>
	<path class="st8" d="M87.5,138.2c-0.8,0-1.5,0-2.3,0c-0.6,0-0.9-0.2-0.7-0.9c0.9-2.3,1.8-4.6,2.8-6.9c0.1-0.2,0.1-0.4,0.3-0.4
		c0.3,0,0.3,0.3,0.4,0.5c0.9,2.2,1.7,4.5,2.6,6.7c0.3,0.7,0,1-0.7,1C89.1,138.2,88.3,138.2,87.5,138.2z"/>
	<path class="st8" d="M178,138.2c-0.8,0-1.6,0-2.4,0c-0.7,0-0.9-0.2-0.6-0.9c0.9-2.3,1.8-4.6,2.7-6.8c0.1-0.2,0.1-0.4,0.3-0.4
		c0.3,0,0.4,0.3,0.4,0.5c0.9,2.3,1.7,4.5,2.6,6.8c0.2,0.6,0,0.9-0.6,0.9C179.7,138.2,178.8,138.2,178,138.2
		C178,138.2,178,138.2,178,138.2z"/>
</g>
</svg>
